<svg width="660" height="82" viewBox="0 0 660 82" fill="none" xmlns="http://www.w3.org/2000/svg">
<g clip-path="url(#clip0_68_116)">
<rect x="0.5" y="0.666626" width="659" height="81" rx="32.4" fill="#0D99FF"/>
<path d="M287.327 35.2178C287.176 33.8731 286.551 32.8314 285.452 32.0928C284.354 31.3447 282.971 30.9706 281.305 30.9706C280.112 30.9706 279.079 31.16 278.208 31.5388C277.337 31.9081 276.66 32.4195 276.177 33.0729C275.703 33.7168 275.467 34.4507 275.467 35.2746C275.467 35.9659 275.628 36.5625 275.95 37.0644C276.281 37.5662 276.712 37.9876 277.242 38.3286C277.782 38.66 278.36 38.9394 278.975 39.1666C279.591 39.3844 280.183 39.5644 280.751 39.7064L283.592 40.445C284.52 40.6723 285.471 40.9801 286.447 41.3683C287.422 41.7566 288.327 42.268 289.16 42.9024C289.993 43.5369 290.666 44.3229 291.177 45.2604C291.698 46.1979 291.958 47.32 291.958 48.6269C291.958 50.2746 291.532 51.7376 290.68 53.0161C289.837 54.2945 288.611 55.303 287.001 56.0416C285.4 56.7803 283.464 57.1496 281.191 57.1496C279.013 57.1496 277.129 56.8039 275.538 56.1126C273.947 55.4214 272.702 54.4412 271.802 53.1723C270.902 51.8939 270.405 50.3787 270.31 48.6269H274.714C274.799 49.678 275.14 50.5539 275.737 51.2547C276.343 51.946 277.114 52.4621 278.052 52.803C278.999 53.1344 280.036 53.3001 281.163 53.3001C282.403 53.3001 283.506 53.106 284.472 52.7178C285.448 52.32 286.215 51.7708 286.774 51.07C287.332 50.3598 287.612 49.5312 287.612 48.5842C287.612 47.7225 287.365 47.017 286.873 46.4678C286.39 45.9185 285.732 45.464 284.899 45.1041C284.075 44.7443 283.142 44.427 282.1 44.1524L278.663 43.2149C276.333 42.5805 274.487 41.6477 273.123 40.4166C271.769 39.1856 271.092 37.5568 271.092 35.5303C271.092 33.8541 271.546 32.3911 272.455 31.1411C273.364 29.8911 274.595 28.9204 276.149 28.2291C277.702 27.5284 279.453 27.178 281.404 27.178C283.374 27.178 285.112 27.5236 286.617 28.2149C288.132 28.9062 289.326 29.8579 290.197 31.07C291.068 32.2727 291.523 33.6553 291.56 35.2178H287.327ZM295.982 56.6666V34.8484H300.229V56.6666H295.982ZM298.127 31.482C297.389 31.482 296.754 31.2358 296.224 30.7433C295.703 30.2414 295.443 29.6448 295.443 28.9536C295.443 28.2528 295.703 27.6562 296.224 27.1638C296.754 26.6619 297.389 26.4109 298.127 26.4109C298.866 26.4109 299.496 26.6619 300.016 27.1638C300.547 27.6562 300.812 28.2528 300.812 28.9536C300.812 29.6448 300.547 30.2414 300.016 30.7433C299.496 31.2358 298.866 31.482 298.127 31.482ZM314.211 65.303C312.478 65.303 310.987 65.0757 309.737 64.6212C308.496 64.1666 307.483 63.5653 306.697 62.8172C305.911 62.0691 305.324 61.25 304.935 60.3598L308.586 58.8541C308.842 59.2708 309.183 59.7111 309.609 60.1751C310.044 60.6486 310.631 61.0511 311.37 61.3825C312.118 61.714 313.079 61.8797 314.254 61.8797C315.863 61.8797 317.194 61.4867 318.245 60.7007C319.296 59.9242 319.822 58.6837 319.822 56.9791V52.6894H319.552C319.296 53.1534 318.927 53.6695 318.444 54.2376C317.97 54.8058 317.317 55.2983 316.484 55.7149C315.65 56.1316 314.566 56.3399 313.231 56.3399C311.507 56.3399 309.954 55.9375 308.572 55.1325C307.199 54.3181 306.11 53.1202 305.305 51.5388C304.509 49.9479 304.112 47.9924 304.112 45.6723C304.112 43.3522 304.505 41.3636 305.291 39.7064C306.086 38.0492 307.175 36.7803 308.558 35.8996C309.94 35.0094 311.507 34.5644 313.259 34.5644C314.613 34.5644 315.707 34.7916 316.541 35.2462C317.374 35.6912 318.023 36.2121 318.487 36.8087C318.96 37.4053 319.325 37.9308 319.58 38.3854H319.893V34.8484H324.055V57.1496C324.055 59.0246 323.619 60.5634 322.748 61.7661C321.877 62.9687 320.698 63.8589 319.211 64.4365C317.734 65.0142 316.067 65.303 314.211 65.303ZM314.168 52.8172C315.39 52.8172 316.422 52.5331 317.265 51.9649C318.117 51.3873 318.761 50.5634 319.197 49.4933C319.642 48.4138 319.864 47.1212 319.864 45.6155C319.864 44.1477 319.647 42.8551 319.211 41.7376C318.775 40.6202 318.136 39.749 317.293 39.124C316.451 38.4895 315.409 38.1723 314.168 38.1723C312.89 38.1723 311.825 38.5037 310.972 39.1666C310.12 39.82 309.476 40.7102 309.041 41.8371C308.614 42.964 308.401 44.2234 308.401 45.6155C308.401 47.0454 308.619 48.3001 309.055 49.3797C309.49 50.4592 310.134 51.302 310.987 51.9081C311.848 52.5142 312.909 52.8172 314.168 52.8172ZM333.118 43.7121V56.6666H328.871V34.8484H332.947V38.3996H333.217C333.719 37.2443 334.505 36.3162 335.575 35.6155C336.655 34.9147 338.014 34.5644 339.652 34.5644C341.139 34.5644 342.441 34.8769 343.558 35.5019C344.676 36.1174 345.542 37.0359 346.158 38.2575C346.773 39.4791 347.081 40.9895 347.081 42.7888V56.6666H342.834V43.3001C342.834 41.7187 342.422 40.4829 341.598 39.5928C340.774 38.6931 339.643 38.2433 338.203 38.2433C337.218 38.2433 336.342 38.4564 335.575 38.8825C334.818 39.3087 334.216 39.9337 333.771 40.7575C333.336 41.5719 333.118 42.5568 333.118 43.7121ZM361.603 56.6666V34.8484H365.85V56.6666H361.603ZM363.748 31.482C363.009 31.482 362.375 31.2358 361.844 30.7433C361.324 30.2414 361.063 29.6448 361.063 28.9536C361.063 28.2528 361.324 27.6562 361.844 27.1638C362.375 26.6619 363.009 26.4109 363.748 26.4109C364.486 26.4109 365.116 26.6619 365.637 27.1638C366.167 27.6562 366.432 28.2528 366.432 28.9536C366.432 29.6448 366.167 30.2414 365.637 30.7433C365.116 31.2358 364.486 31.482 363.748 31.482ZM374.931 43.7121V56.6666H370.684V34.8484H374.761V38.3996H375.03C375.532 37.2443 376.318 36.3162 377.388 35.6155C378.468 34.9147 379.827 34.5644 381.465 34.5644C382.952 34.5644 384.254 34.8769 385.371 35.5019C386.489 36.1174 387.355 37.0359 387.971 38.2575C388.586 39.4791 388.894 40.9895 388.894 42.7888V56.6666H384.647V43.3001C384.647 41.7187 384.235 40.4829 383.411 39.5928C382.587 38.6931 381.456 38.2433 380.016 38.2433C379.031 38.2433 378.155 38.4564 377.388 38.8825C376.631 39.3087 376.029 39.9337 375.584 40.7575C375.149 41.5719 374.931 42.5568 374.931 43.7121Z" fill="white"/>
</g>
<defs>
<clipPath id="clip0_68_116">
<rect width="659" height="81" fill="white" transform="translate(0.5 0.666626)"/>
</clipPath>
</defs>
</svg>
